M48
;Layer_Color=9474304
;FILE_FORMAT=2:4
INCH,TZ
;TYPE=PLATED
T01F00S00C0.0276
T02F00S00C0.0320
T03F00S00C0.0335
T04F00S00C0.0354
T05F00S00C0.0394
T06F00S00C0.0400
T07F00S00C0.0409
T08F00S00C0.0433
T09F00S00C0.0453
T10F00S00C0.0472
T11F00S00C0.0520
T12F00S00C0.0984
%
T01
X39100Y15748
X39100Y17323
X36097
X36097Y15748
T02
X34252Y13748
Y15748
Y17291
Y19291
T03
X38189Y8465
X40157Y8465
X43701Y8465
X45669
Y12008
X43701
X40157Y12008
X38189Y12008
X39370Y13976
X39370Y19094
X35827
X35827Y13976
X34646Y12008
X32677
X29134
X27165
X23622
X21654Y12008
Y8465
X23622Y8465
X27165
X29134
X32677
X34646
X24016Y15354
X22047
Y18898
X24016
X18110Y12008
X16142
X12598
X12205Y13189
X10630Y12008
X7087
X6299Y13189
Y16732
X12205
X12598Y8465
X10630
X7087
X16142
X18110
X5118
Y12008
T04
X41535Y13543
Y14567
Y15591
X41142Y16496
Y17520
Y18543
X19807Y18626
X18807
X17807
X16807
Y15626
X17807
X18807
X19807
T05
X14370Y18882
Y19882
X4331Y19488
X3331
T06
X45472Y14268
Y17228
T07
X6102Y19488
X9252
X12205
T08
X21488Y13583
X20488
X19488
T09
X8268Y13189
X10236Y13189
Y16732
X8268Y16732
T10
X5118Y1870
X7087
X10630
X12598
X16142
X18110
X21654
X23622
X27165
X29134
X32677
X34646
X38189
X40157
X43701
X45669
Y6791
X43701
X40157
X38189
X34646
X32677
X29134
X27165
X23622
X21654
X18110
X16142
X12598
X10630
X7087
X5118
T11
X26772Y19882
X28740
X30709
T12
X1378Y1378
X49409
Y20472
X1378
M30
