G04*
G04 #@! TF.GenerationSoftware,Altium Limited,Altium Designer,24.5.1 (21)*
G04*
G04 Layer_Color=32768*
%FSLAX25Y25*%
%MOIN*%
G70*
G04*
G04 #@! TF.SameCoordinates,3106325B-D942-48A4-ABE3-467AB4579E9E*
G04*
G04*
G04 #@! TF.FilePolarity,Positive*
G04*
G01*
G75*
%ADD10C,0.00394*%
%ADD11C,0.00600*%
%ADD56C,0.00197*%
G36*
X336020Y131730D02*
Y163230D01*
X349020D01*
Y131730D01*
X336020D01*
D02*
G37*
G36*
X349020Y198663D02*
Y167163D01*
X336020D01*
Y198663D01*
X349020D01*
D02*
G37*
D10*
X216535Y100394D02*
Y104331D01*
X214567Y102362D02*
X218504D01*
X240158Y169291D02*
Y173228D01*
X238189Y171260D02*
X242126D01*
X220472Y169291D02*
Y173228D01*
X218504Y171260D02*
X222441D01*
X324803Y172638D02*
Y296654D01*
X250000D02*
X324803D01*
X250000Y172638D02*
Y296654D01*
Y172638D02*
X324803D01*
X374016Y139764D02*
X377953D01*
X375984Y137795D02*
Y141732D01*
X374016Y190945D02*
X377953D01*
X375984Y188976D02*
Y192913D01*
X411417Y173228D02*
Y177165D01*
X409449Y175197D02*
X413386D01*
X413386Y145669D02*
X417323D01*
X415354Y143701D02*
Y147638D01*
X61024Y149606D02*
X64961D01*
X62992Y147638D02*
Y151575D01*
X102362Y147638D02*
Y151575D01*
X100394Y149606D02*
X104331D01*
X82677Y147638D02*
Y151575D01*
X80709Y149606D02*
X84646D01*
X120079D02*
X124016D01*
X122047Y147638D02*
Y151575D01*
X456693Y100394D02*
Y104331D01*
X454724Y102362D02*
X458661D01*
X437008Y100394D02*
Y104331D01*
X435039Y102362D02*
X438976D01*
X401575Y100394D02*
Y104331D01*
X399606Y102362D02*
X403543D01*
X381890Y100394D02*
Y104331D01*
X379921Y102362D02*
X383858D01*
X346457Y100394D02*
Y104331D01*
X344488Y102362D02*
X348425D01*
X326772Y100394D02*
Y104331D01*
X324803Y102362D02*
X328740D01*
X291339Y100394D02*
Y104331D01*
X289370Y102362D02*
X293307D01*
X271654Y100394D02*
Y104331D01*
X269685Y102362D02*
X273622D01*
X236221Y100394D02*
Y104331D01*
X234252Y102362D02*
X238189D01*
X181102Y100394D02*
Y104331D01*
X179134Y102362D02*
X183071D01*
X161417Y100394D02*
Y104331D01*
X159449Y102362D02*
X163386D01*
X125984Y100394D02*
Y104331D01*
X124016Y102362D02*
X127953D01*
X106299Y100394D02*
Y104331D01*
X104331Y102362D02*
X108268D01*
X70866Y100394D02*
Y104331D01*
X68898Y102362D02*
X72835D01*
X51181Y100394D02*
Y104331D01*
X49213Y102362D02*
X53150D01*
X183071Y169291D02*
Y173228D01*
X181102Y171260D02*
X185039D01*
D11*
X336020Y167163D02*
X349020D01*
X336020D02*
Y198663D01*
X349020D01*
Y167163D02*
Y198663D01*
X336020Y163230D02*
X349020D01*
Y131730D02*
Y163230D01*
X336020Y131730D02*
X349020D01*
X336020D02*
Y163230D01*
D56*
X187894Y130098D02*
Y141555D01*
X221870D01*
Y130098D02*
Y141555D01*
X187894Y130098D02*
X221870D01*
X211417Y123130D02*
X221654D01*
X211417Y81595D02*
Y123130D01*
X221654Y81595D02*
Y123130D01*
X211417Y81595D02*
X221654D01*
X235039Y192028D02*
X245276D01*
X235039Y150492D02*
Y192028D01*
X245276Y150492D02*
Y192028D01*
X235039Y150492D02*
X245276D01*
X215354D02*
X225590D01*
Y192028D01*
X215354Y150492D02*
Y192028D01*
X225590D01*
X355217Y134646D02*
Y144882D01*
Y134646D02*
X396752D01*
X355217Y144882D02*
X396752D01*
Y134646D02*
Y144882D01*
X396752Y185827D02*
Y196063D01*
X355217D02*
X396752D01*
X355217Y185827D02*
X396752D01*
X355217D02*
Y196063D01*
X405768Y161811D02*
X421063D01*
Y188583D01*
X405768D02*
X421063D01*
X405768Y161811D02*
Y188583D01*
X421004Y132283D02*
Y159055D01*
X405709Y132283D02*
X421004D01*
X405709D02*
Y159055D01*
X421004D01*
X111221Y205610D02*
X131516D01*
X111221Y184153D02*
Y205610D01*
Y184153D02*
X131516D01*
Y205610D01*
X57874Y170374D02*
X68110D01*
X57874Y128839D02*
Y170374D01*
X68110Y128839D02*
Y170374D01*
X57874Y128839D02*
X68110D01*
X97323Y128248D02*
Y170965D01*
Y170965D02*
X107402D01*
X97323Y128248D02*
X107402D01*
Y128248D02*
Y170965D01*
X87717Y128248D02*
Y170965D01*
X77638Y128248D02*
X87717D01*
X77638Y170965D02*
X87717D01*
X77638Y128248D02*
Y170965D01*
X116929Y170374D02*
X127165D01*
X116929Y128839D02*
Y170374D01*
X127165Y128839D02*
Y170374D01*
X116929Y128839D02*
X127165D01*
X101988Y184153D02*
Y205610D01*
X81693Y184153D02*
X101988D01*
X81693D02*
Y205610D01*
X101988D01*
X50197D02*
X70492D01*
X50197Y184153D02*
Y205610D01*
Y184153D02*
X70492D01*
Y205610D01*
X451575Y81595D02*
X461811D01*
Y123130D01*
X451575Y81595D02*
Y123130D01*
X461811D01*
X431890D02*
X442126D01*
X431890Y81595D02*
Y123130D01*
X442126Y81595D02*
Y123130D01*
X431890Y81595D02*
X442126D01*
X396457Y81595D02*
X406693D01*
Y123130D01*
X396457Y81595D02*
Y123130D01*
X406693D01*
X376772Y123130D02*
X387008D01*
X376772Y81595D02*
Y123130D01*
X387008Y81595D02*
Y123130D01*
X376772Y81595D02*
X387008D01*
X341339D02*
X351575D01*
Y123130D01*
X341339Y81595D02*
Y123130D01*
X351575D01*
X321654D02*
X331890D01*
X321654Y81595D02*
Y123130D01*
X331890Y81595D02*
Y123130D01*
X321654Y81595D02*
X331890D01*
X286221D02*
X296457D01*
Y123130D01*
X286221Y81595D02*
Y123130D01*
X296457D01*
X266535D02*
X276772D01*
X266535Y81595D02*
Y123130D01*
X276772Y81595D02*
Y123130D01*
X266535Y81595D02*
X276772D01*
X231102D02*
X241339D01*
Y123130D01*
X231102Y81595D02*
Y123130D01*
X241339D01*
X175984Y81595D02*
X186221D01*
Y123130D01*
X175984Y81595D02*
Y123130D01*
X186221D01*
X156299D02*
X166535D01*
X156299Y81595D02*
Y123130D01*
X166535Y81595D02*
Y123130D01*
X156299Y81595D02*
X166535D01*
X120866D02*
X131102D01*
Y123130D01*
X120866Y81595D02*
Y123130D01*
X131102D01*
X101181D02*
X111417D01*
X101181Y81595D02*
Y123130D01*
X111417Y81595D02*
Y123130D01*
X101181Y81595D02*
X111417D01*
X65748D02*
X75984D01*
Y123130D01*
X65748Y81595D02*
Y123130D01*
X75984D01*
X46063D02*
X56299D01*
X46063Y81595D02*
Y123130D01*
X56299Y81595D02*
Y123130D01*
X46063Y81595D02*
X56299D01*
X162008Y152165D02*
X204134D01*
X162008Y190354D02*
X204134D01*
X162008Y152165D02*
Y190354D01*
X204134Y152165D02*
Y190354D01*
M02*
