G04*
G04 #@! TF.GenerationSoftware,Altium Limited,Altium Designer,24.5.1 (21)*
G04*
G04 Layer_Color=16711935*
%FSLAX25Y25*%
%MOIN*%
G70*
G04*
G04 #@! TF.SameCoordinates,3106325B-D942-48A4-ABE3-467AB4579E9E*
G04*
G04*
G04 #@! TF.FilePolarity,Positive*
G04*
G01*
G75*
%ADD12C,0.00787*%
G36*
X374139Y154918D02*
X373797D01*
X372475Y156898D01*
Y154918D01*
X372155D01*
Y157437D01*
X372501D01*
X373818Y155460D01*
Y157437D01*
X374139D01*
Y154918D01*
D02*
G37*
G36*
X370732Y156832D02*
X371827D01*
Y156549D01*
X370673Y154918D01*
X370422D01*
Y156549D01*
X370080D01*
Y156832D01*
X370422D01*
Y157437D01*
X370732D01*
Y156832D01*
D02*
G37*
G36*
X366815D02*
X367911D01*
Y156549D01*
X366757Y154918D01*
X366506D01*
Y156549D01*
X366164D01*
Y156832D01*
X366506D01*
Y157437D01*
X366815D01*
Y156832D01*
D02*
G37*
G36*
X375365Y155467D02*
X375369Y155471D01*
X375387Y155486D01*
X375409Y155508D01*
X375446Y155533D01*
X375486Y155566D01*
X375537Y155602D01*
X375595Y155642D01*
X375660Y155682D01*
X375664D01*
X375668Y155686D01*
X375689Y155700D01*
X375726Y155719D01*
X375769Y155740D01*
X375820Y155766D01*
X375875Y155791D01*
X375930Y155817D01*
X375984Y155839D01*
Y155540D01*
X375981D01*
X375973Y155533D01*
X375959Y155529D01*
X375941Y155518D01*
X375919Y155508D01*
X375893Y155493D01*
X375831Y155456D01*
X375759Y155417D01*
X375686Y155366D01*
X375609Y155307D01*
X375533Y155245D01*
X375529Y155242D01*
X375526Y155238D01*
X375515Y155227D01*
X375500Y155216D01*
X375467Y155180D01*
X375424Y155136D01*
X375380Y155085D01*
X375333Y155027D01*
X375293Y154969D01*
X375256Y154907D01*
X375056D01*
Y157437D01*
X375365D01*
Y155467D01*
D02*
G37*
G36*
X368908D02*
X368912Y155471D01*
X368930Y155486D01*
X368952Y155508D01*
X368988Y155533D01*
X369028Y155566D01*
X369079Y155602D01*
X369137Y155642D01*
X369203Y155682D01*
X369207D01*
X369210Y155686D01*
X369232Y155700D01*
X369268Y155719D01*
X369312Y155740D01*
X369363Y155766D01*
X369418Y155791D01*
X369472Y155817D01*
X369527Y155839D01*
Y155540D01*
X369523D01*
X369516Y155533D01*
X369501Y155529D01*
X369483Y155518D01*
X369461Y155508D01*
X369436Y155493D01*
X369374Y155456D01*
X369301Y155417D01*
X369229Y155366D01*
X369152Y155307D01*
X369076Y155245D01*
X369072Y155242D01*
X369068Y155238D01*
X369057Y155227D01*
X369043Y155216D01*
X369010Y155180D01*
X368966Y155136D01*
X368923Y155085D01*
X368875Y155027D01*
X368835Y154969D01*
X368799Y154907D01*
X368599D01*
Y157437D01*
X368908D01*
Y155467D01*
D02*
G37*
G36*
X365083Y157477D02*
X365115Y157473D01*
X365152Y157469D01*
X365192Y157462D01*
X365235Y157451D01*
X365334Y157426D01*
X365385Y157408D01*
X365432Y157389D01*
X365483Y157364D01*
X365534Y157335D01*
X365581Y157302D01*
X365625Y157262D01*
X365629Y157258D01*
X365636Y157251D01*
X365647Y157240D01*
X365661Y157222D01*
X365676Y157200D01*
X365698Y157175D01*
X365716Y157146D01*
X365738Y157109D01*
X365759Y157073D01*
X365778Y157029D01*
X365814Y156938D01*
X365829Y156883D01*
X365840Y156829D01*
X365847Y156771D01*
X365850Y156712D01*
Y156709D01*
Y156701D01*
Y156687D01*
X365847Y156672D01*
Y156650D01*
X365843Y156625D01*
X365836Y156567D01*
X365821Y156501D01*
X365800Y156436D01*
X365767Y156367D01*
X365727Y156301D01*
Y156297D01*
X365720Y156294D01*
X365705Y156275D01*
X365676Y156246D01*
X365636Y156210D01*
X365585Y156174D01*
X365523Y156134D01*
X365454Y156101D01*
X365370Y156075D01*
X365374D01*
X365377Y156072D01*
X365388Y156068D01*
X365403Y156061D01*
X365436Y156046D01*
X365479Y156024D01*
X365527Y155995D01*
X365574Y155959D01*
X365618Y155919D01*
X365658Y155875D01*
X365661Y155868D01*
X365672Y155853D01*
X365687Y155824D01*
X365701Y155788D01*
X365720Y155740D01*
X365734Y155686D01*
X365745Y155624D01*
X365749Y155558D01*
Y155555D01*
Y155547D01*
Y155533D01*
X365745Y155511D01*
X365741Y155489D01*
X365738Y155460D01*
X365723Y155398D01*
X365701Y155325D01*
X365665Y155249D01*
X365643Y155209D01*
X365618Y155169D01*
X365585Y155133D01*
X365552Y155096D01*
X365548Y155093D01*
X365541Y155089D01*
X365530Y155078D01*
X365516Y155067D01*
X365497Y155052D01*
X365472Y155038D01*
X365443Y155020D01*
X365414Y155001D01*
X365377Y154983D01*
X365337Y154965D01*
X365294Y154951D01*
X365246Y154936D01*
X365144Y154914D01*
X365086Y154911D01*
X365028Y154907D01*
X364995D01*
X364973Y154911D01*
X364944Y154914D01*
X364911Y154918D01*
X364875Y154921D01*
X364839Y154932D01*
X364751Y154954D01*
X364664Y154987D01*
X364620Y155009D01*
X364577Y155034D01*
X364536Y155067D01*
X364496Y155100D01*
X364493Y155103D01*
X364489Y155107D01*
X364478Y155118D01*
X364464Y155133D01*
X364449Y155154D01*
X364431Y155176D01*
X364394Y155231D01*
X364358Y155300D01*
X364325Y155380D01*
X364300Y155471D01*
X364296Y155518D01*
X364293Y155569D01*
Y155573D01*
Y155577D01*
Y155598D01*
X364296Y155631D01*
X364303Y155671D01*
X364314Y155722D01*
X364333Y155773D01*
X364354Y155824D01*
X364387Y155875D01*
X364391Y155882D01*
X364405Y155897D01*
X364427Y155919D01*
X364456Y155948D01*
X364496Y155981D01*
X364544Y156013D01*
X364598Y156046D01*
X364664Y156075D01*
X364660D01*
X364653Y156079D01*
X364642Y156083D01*
X364628Y156090D01*
X364584Y156108D01*
X364533Y156134D01*
X364478Y156170D01*
X364420Y156210D01*
X364365Y156261D01*
X364314Y156319D01*
Y156323D01*
X364311Y156326D01*
X364296Y156348D01*
X364274Y156385D01*
X364253Y156432D01*
X364231Y156490D01*
X364209Y156559D01*
X364194Y156636D01*
X364191Y156720D01*
Y156723D01*
Y156734D01*
Y156752D01*
X364194Y156774D01*
X364198Y156800D01*
X364202Y156832D01*
X364209Y156869D01*
X364220Y156909D01*
X364245Y156993D01*
X364264Y157040D01*
X364289Y157084D01*
X364314Y157131D01*
X364344Y157175D01*
X364380Y157218D01*
X364420Y157262D01*
X364424Y157266D01*
X364431Y157273D01*
X364442Y157284D01*
X364460Y157295D01*
X364486Y157313D01*
X364511Y157331D01*
X364544Y157349D01*
X364580Y157371D01*
X364620Y157393D01*
X364668Y157411D01*
X364719Y157429D01*
X364770Y157448D01*
X364828Y157458D01*
X364890Y157469D01*
X364951Y157477D01*
X365021Y157480D01*
X365057D01*
X365083Y157477D01*
D02*
G37*
G36*
X379814Y173272D02*
X379468D01*
X378150Y175249D01*
Y173272D01*
X377830D01*
Y175791D01*
X378172D01*
X379493Y173811D01*
Y175791D01*
X379814D01*
Y173272D01*
D02*
G37*
G36*
X385463Y174160D02*
X385805D01*
Y173876D01*
X385463D01*
Y173272D01*
X385153D01*
Y173876D01*
X384058D01*
Y174160D01*
X385212Y175791D01*
X385463D01*
Y174160D01*
D02*
G37*
G36*
X383370Y173272D02*
X383060D01*
Y175241D01*
X383057Y175238D01*
X383038Y175223D01*
X383017Y175201D01*
X382980Y175176D01*
X382940Y175143D01*
X382889Y175107D01*
X382831Y175066D01*
X382766Y175027D01*
X382762D01*
X382758Y175023D01*
X382736Y175008D01*
X382700Y174990D01*
X382656Y174968D01*
X382605Y174943D01*
X382551Y174917D01*
X382496Y174892D01*
X382442Y174870D01*
Y175168D01*
X382445D01*
X382453Y175176D01*
X382467Y175179D01*
X382485Y175190D01*
X382507Y175201D01*
X382533Y175216D01*
X382594Y175252D01*
X382667Y175292D01*
X382740Y175343D01*
X382817Y175401D01*
X382893Y175463D01*
X382897Y175467D01*
X382900Y175470D01*
X382911Y175481D01*
X382926Y175492D01*
X382958Y175529D01*
X383002Y175573D01*
X383046Y175623D01*
X383093Y175682D01*
X383133Y175740D01*
X383170Y175802D01*
X383370D01*
Y173272D01*
D02*
G37*
G36*
X381546Y174160D02*
X381888D01*
Y173876D01*
X381546D01*
Y173272D01*
X381237D01*
Y173876D01*
X380141D01*
Y174160D01*
X381295Y175791D01*
X381546D01*
Y174160D01*
D02*
G37*
G36*
X376912Y173272D02*
X376603D01*
Y175241D01*
X376599Y175238D01*
X376581Y175223D01*
X376559Y175201D01*
X376523Y175176D01*
X376483Y175143D01*
X376432Y175107D01*
X376374Y175066D01*
X376308Y175027D01*
X376305D01*
X376301Y175023D01*
X376279Y175008D01*
X376243Y174990D01*
X376199Y174968D01*
X376148Y174943D01*
X376093Y174917D01*
X376039Y174892D01*
X375984Y174870D01*
Y175168D01*
X375988D01*
X375995Y175176D01*
X376010Y175179D01*
X376028Y175190D01*
X376050Y175201D01*
X376075Y175216D01*
X376137Y175252D01*
X376210Y175292D01*
X376283Y175343D01*
X376359Y175401D01*
X376436Y175463D01*
X376439Y175467D01*
X376443Y175470D01*
X376454Y175481D01*
X376468Y175492D01*
X376501Y175529D01*
X376545Y175573D01*
X376588Y175623D01*
X376636Y175682D01*
X376676Y175740D01*
X376712Y175802D01*
X376912D01*
Y173272D01*
D02*
G37*
G36*
X386995Y175798D02*
X387024Y175794D01*
X387057Y175791D01*
X387093Y175787D01*
X387130Y175776D01*
X387217Y175754D01*
X387305Y175722D01*
X387348Y175700D01*
X387392Y175674D01*
X387432Y175642D01*
X387472Y175609D01*
X387476Y175605D01*
X387479Y175602D01*
X387490Y175591D01*
X387505Y175576D01*
X387519Y175554D01*
X387538Y175532D01*
X387574Y175478D01*
X387610Y175409D01*
X387643Y175329D01*
X387669Y175238D01*
X387672Y175190D01*
X387676Y175139D01*
Y175136D01*
Y175132D01*
Y175110D01*
X387672Y175077D01*
X387665Y175037D01*
X387654Y174986D01*
X387636Y174935D01*
X387614Y174884D01*
X387581Y174834D01*
X387578Y174826D01*
X387563Y174812D01*
X387541Y174790D01*
X387512Y174761D01*
X387472Y174728D01*
X387425Y174695D01*
X387370Y174662D01*
X387305Y174633D01*
X387308D01*
X387316Y174630D01*
X387326Y174626D01*
X387341Y174619D01*
X387385Y174601D01*
X387436Y174575D01*
X387490Y174539D01*
X387548Y174499D01*
X387603Y174448D01*
X387654Y174390D01*
Y174386D01*
X387658Y174382D01*
X387672Y174360D01*
X387694Y174324D01*
X387716Y174277D01*
X387738Y174218D01*
X387760Y174149D01*
X387774Y174073D01*
X387778Y173989D01*
Y173985D01*
Y173975D01*
Y173956D01*
X387774Y173934D01*
X387771Y173909D01*
X387767Y173876D01*
X387760Y173840D01*
X387749Y173800D01*
X387723Y173716D01*
X387705Y173669D01*
X387680Y173625D01*
X387654Y173578D01*
X387625Y173534D01*
X387589Y173490D01*
X387548Y173447D01*
X387545Y173443D01*
X387538Y173436D01*
X387527Y173425D01*
X387508Y173414D01*
X387483Y173396D01*
X387457Y173378D01*
X387425Y173359D01*
X387388Y173337D01*
X387348Y173316D01*
X387301Y173298D01*
X387250Y173279D01*
X387199Y173261D01*
X387141Y173250D01*
X387079Y173239D01*
X387017Y173232D01*
X386948Y173228D01*
X386912D01*
X386886Y173232D01*
X386853Y173236D01*
X386817Y173239D01*
X386777Y173247D01*
X386733Y173257D01*
X386635Y173283D01*
X386584Y173301D01*
X386537Y173319D01*
X386486Y173345D01*
X386435Y173374D01*
X386387Y173407D01*
X386344Y173447D01*
X386340Y173450D01*
X386333Y173458D01*
X386322Y173468D01*
X386307Y173487D01*
X386293Y173509D01*
X386271Y173534D01*
X386253Y173563D01*
X386231Y173600D01*
X386209Y173636D01*
X386191Y173680D01*
X386154Y173771D01*
X386140Y173825D01*
X386129Y173880D01*
X386122Y173938D01*
X386118Y173996D01*
Y174000D01*
Y174007D01*
Y174022D01*
X386122Y174036D01*
Y174058D01*
X386125Y174084D01*
X386133Y174142D01*
X386147Y174207D01*
X386169Y174273D01*
X386202Y174342D01*
X386242Y174408D01*
Y174411D01*
X386249Y174415D01*
X386264Y174433D01*
X386293Y174462D01*
X386333Y174499D01*
X386384Y174535D01*
X386446Y174575D01*
X386515Y174608D01*
X386598Y174633D01*
X386595D01*
X386591Y174637D01*
X386580Y174641D01*
X386566Y174648D01*
X386533Y174662D01*
X386489Y174684D01*
X386442Y174713D01*
X386395Y174750D01*
X386351Y174790D01*
X386311Y174834D01*
X386307Y174841D01*
X386296Y174855D01*
X386282Y174884D01*
X386267Y174921D01*
X386249Y174968D01*
X386234Y175023D01*
X386224Y175085D01*
X386220Y175150D01*
Y175154D01*
Y175161D01*
Y175176D01*
X386224Y175198D01*
X386227Y175219D01*
X386231Y175249D01*
X386245Y175310D01*
X386267Y175383D01*
X386304Y175460D01*
X386325Y175500D01*
X386351Y175540D01*
X386384Y175576D01*
X386416Y175612D01*
X386420Y175616D01*
X386427Y175620D01*
X386438Y175631D01*
X386453Y175642D01*
X386471Y175656D01*
X386496Y175671D01*
X386526Y175689D01*
X386555Y175707D01*
X386591Y175725D01*
X386631Y175743D01*
X386675Y175758D01*
X386722Y175773D01*
X386824Y175794D01*
X386882Y175798D01*
X386941Y175802D01*
X386973D01*
X386995Y175798D01*
D02*
G37*
%LPC*%
G36*
X371525Y156549D02*
X370732D01*
Y155420D01*
X371525Y156549D01*
D02*
G37*
G36*
X367609D02*
X366815D01*
Y155420D01*
X367609Y156549D01*
D02*
G37*
G36*
X365021Y157226D02*
X364999D01*
X364984Y157222D01*
X364941Y157218D01*
X364890Y157207D01*
X364831Y157189D01*
X364770Y157167D01*
X364711Y157131D01*
X364653Y157084D01*
X364646Y157076D01*
X364631Y157058D01*
X364606Y157025D01*
X364580Y156985D01*
X364555Y156934D01*
X364529Y156872D01*
X364515Y156800D01*
X364507Y156723D01*
Y156720D01*
Y156712D01*
Y156701D01*
X364511Y156687D01*
X364515Y156647D01*
X364526Y156592D01*
X364544Y156538D01*
X364569Y156476D01*
X364606Y156414D01*
X364657Y156356D01*
X364664Y156348D01*
X364682Y156334D01*
X364715Y156308D01*
X364758Y156279D01*
X364813Y156254D01*
X364879Y156228D01*
X364951Y156214D01*
X365032Y156206D01*
X365053D01*
X365068Y156210D01*
X365108Y156214D01*
X365159Y156225D01*
X365217Y156243D01*
X365275Y156268D01*
X365337Y156305D01*
X365392Y156352D01*
X365399Y156359D01*
X365414Y156377D01*
X365436Y156410D01*
X365461Y156450D01*
X365490Y156505D01*
X365512Y156567D01*
X365527Y156636D01*
X365534Y156712D01*
Y156720D01*
Y156734D01*
X365530Y156760D01*
X365527Y156792D01*
X365519Y156832D01*
X365508Y156876D01*
X365494Y156920D01*
X365476Y156967D01*
X365472Y156971D01*
X365465Y156989D01*
X365450Y157011D01*
X365428Y157036D01*
X365403Y157069D01*
X365370Y157102D01*
X365334Y157131D01*
X365290Y157160D01*
X365283Y157164D01*
X365268Y157171D01*
X365243Y157182D01*
X365210Y157193D01*
X365170Y157204D01*
X365123Y157215D01*
X365072Y157222D01*
X365021Y157226D01*
D02*
G37*
G36*
Y155955D02*
X365013D01*
X364991Y155952D01*
X364959Y155948D01*
X364915Y155941D01*
X364868Y155926D01*
X364820Y155908D01*
X364770Y155879D01*
X364726Y155842D01*
X364722Y155839D01*
X364708Y155821D01*
X364689Y155799D01*
X364668Y155766D01*
X364646Y155726D01*
X364628Y155679D01*
X364613Y155624D01*
X364609Y155566D01*
Y155562D01*
Y155558D01*
Y155537D01*
X364617Y155504D01*
X364624Y155464D01*
X364638Y155420D01*
X364660Y155373D01*
X364689Y155325D01*
X364729Y155278D01*
X364733Y155274D01*
X364751Y155260D01*
X364777Y155242D01*
X364809Y155220D01*
X364853Y155198D01*
X364900Y155180D01*
X364959Y155165D01*
X365021Y155162D01*
X365050D01*
X365083Y155169D01*
X365126Y155176D01*
X365174Y155191D01*
X365224Y155209D01*
X365272Y155238D01*
X365319Y155278D01*
X365323Y155282D01*
X365337Y155296D01*
X365355Y155322D01*
X365374Y155355D01*
X365395Y155395D01*
X365414Y155442D01*
X365428Y155493D01*
X365432Y155551D01*
Y155555D01*
Y155558D01*
X365428Y155580D01*
X365425Y155613D01*
X365417Y155653D01*
X365403Y155700D01*
X365385Y155748D01*
X365355Y155799D01*
X365319Y155842D01*
X365316Y155846D01*
X365297Y155861D01*
X365272Y155879D01*
X365239Y155897D01*
X365195Y155919D01*
X365144Y155937D01*
X365086Y155952D01*
X365021Y155955D01*
D02*
G37*
G36*
X385153Y175288D02*
X384360Y174160D01*
X385153D01*
Y175288D01*
D02*
G37*
G36*
X381237D02*
X380443Y174160D01*
X381237D01*
Y175288D01*
D02*
G37*
G36*
X386948Y175547D02*
X386919D01*
X386886Y175540D01*
X386842Y175532D01*
X386795Y175518D01*
X386744Y175500D01*
X386697Y175470D01*
X386649Y175431D01*
X386646Y175427D01*
X386631Y175412D01*
X386613Y175387D01*
X386595Y175354D01*
X386573Y175314D01*
X386555Y175267D01*
X386540Y175216D01*
X386537Y175157D01*
Y175154D01*
Y175150D01*
X386540Y175128D01*
X386544Y175096D01*
X386551Y175056D01*
X386566Y175008D01*
X386584Y174961D01*
X386613Y174910D01*
X386649Y174866D01*
X386653Y174863D01*
X386671Y174848D01*
X386697Y174830D01*
X386730Y174812D01*
X386773Y174790D01*
X386824Y174772D01*
X386882Y174757D01*
X386948Y174753D01*
X386955D01*
X386977Y174757D01*
X387010Y174761D01*
X387053Y174768D01*
X387101Y174783D01*
X387148Y174801D01*
X387199Y174830D01*
X387243Y174866D01*
X387246Y174870D01*
X387261Y174888D01*
X387279Y174910D01*
X387301Y174943D01*
X387323Y174983D01*
X387341Y175030D01*
X387356Y175085D01*
X387359Y175143D01*
Y175147D01*
Y175150D01*
Y175172D01*
X387352Y175205D01*
X387345Y175245D01*
X387330Y175288D01*
X387308Y175336D01*
X387279Y175383D01*
X387239Y175431D01*
X387235Y175434D01*
X387217Y175449D01*
X387192Y175467D01*
X387159Y175489D01*
X387115Y175511D01*
X387068Y175529D01*
X387010Y175543D01*
X386948Y175547D01*
D02*
G37*
G36*
X386937Y174502D02*
X386915D01*
X386901Y174499D01*
X386860Y174495D01*
X386810Y174484D01*
X386751Y174466D01*
X386693Y174440D01*
X386631Y174404D01*
X386577Y174357D01*
X386569Y174349D01*
X386555Y174331D01*
X386533Y174299D01*
X386507Y174258D01*
X386478Y174204D01*
X386456Y174142D01*
X386442Y174073D01*
X386435Y173996D01*
Y173989D01*
Y173975D01*
X386438Y173949D01*
X386442Y173916D01*
X386449Y173876D01*
X386460Y173832D01*
X386475Y173789D01*
X386493Y173741D01*
X386496Y173738D01*
X386504Y173720D01*
X386518Y173698D01*
X386540Y173672D01*
X386566Y173640D01*
X386598Y173607D01*
X386635Y173578D01*
X386679Y173549D01*
X386686Y173545D01*
X386700Y173538D01*
X386726Y173527D01*
X386759Y173516D01*
X386799Y173505D01*
X386846Y173494D01*
X386897Y173487D01*
X386948Y173483D01*
X386970D01*
X386984Y173487D01*
X387028Y173490D01*
X387079Y173501D01*
X387137Y173520D01*
X387199Y173541D01*
X387257Y173578D01*
X387316Y173625D01*
X387323Y173632D01*
X387337Y173651D01*
X387363Y173683D01*
X387388Y173723D01*
X387414Y173774D01*
X387439Y173836D01*
X387454Y173909D01*
X387461Y173985D01*
Y173989D01*
Y173996D01*
Y174007D01*
X387457Y174022D01*
X387454Y174062D01*
X387443Y174117D01*
X387425Y174171D01*
X387399Y174233D01*
X387363Y174295D01*
X387312Y174353D01*
X387305Y174360D01*
X387286Y174375D01*
X387254Y174400D01*
X387210Y174430D01*
X387155Y174455D01*
X387090Y174480D01*
X387017Y174495D01*
X386937Y174502D01*
D02*
G37*
%LPD*%
D12*
X358217Y153327D02*
X393752D01*
X358217D02*
Y161634D01*
X393752D01*
Y153327D02*
Y161634D01*
X358217Y177382D02*
X393752D01*
Y169075D02*
Y177382D01*
X358217Y169075D02*
X393752D01*
X358217D02*
Y177382D01*
M02*
