G04*
G04 #@! TF.GenerationSoftware,Altium Limited,Altium Designer,24.5.1 (21)*
G04*
G04 Layer_Color=32896*
%FSLAX25Y25*%
%MOIN*%
G70*
G04*
G04 #@! TF.SameCoordinates,3106325B-D942-48A4-ABE3-467AB4579E9E*
G04*
G04*
G04 #@! TF.FilePolarity,Positive*
G04*
G01*
G75*
%ADD14C,0.00591*%
%ADD57C,0.00472*%
G36*
X492477Y25280D02*
X492276D01*
Y25990D01*
X491496D01*
Y25280D01*
X491295D01*
Y26788D01*
X491496D01*
Y26169D01*
X492276D01*
Y26788D01*
X492477D01*
Y25280D01*
D02*
G37*
G36*
X493513Y25811D02*
X493717D01*
Y25641D01*
X493513D01*
Y25280D01*
X493327D01*
Y25641D01*
X492671D01*
Y25811D01*
X493362Y26788D01*
X493513D01*
Y25811D01*
D02*
G37*
G36*
X491082Y26609D02*
X490585D01*
Y25280D01*
X490384D01*
Y26609D01*
X489887D01*
Y26788D01*
X491082D01*
Y26609D01*
D02*
G37*
G36*
X489246Y26786D02*
X489283Y26784D01*
X489323Y26781D01*
X489360Y26777D01*
X489392Y26773D01*
X489397D01*
X489412Y26768D01*
X489432Y26764D01*
X489458Y26758D01*
X489486Y26747D01*
X489517Y26734D01*
X489549Y26718D01*
X489578Y26701D01*
X489582Y26699D01*
X489591Y26692D01*
X489604Y26679D01*
X489621Y26664D01*
X489641Y26644D01*
X489661Y26618D01*
X489682Y26590D01*
X489700Y26557D01*
X489702Y26553D01*
X489706Y26542D01*
X489715Y26522D01*
X489724Y26496D01*
X489730Y26465D01*
X489739Y26431D01*
X489743Y26391D01*
X489746Y26350D01*
Y26348D01*
Y26341D01*
Y26333D01*
X489743Y26317D01*
X489741Y26302D01*
X489739Y26282D01*
X489735Y26261D01*
X489730Y26237D01*
X489715Y26186D01*
X489706Y26160D01*
X489693Y26132D01*
X489678Y26104D01*
X489663Y26077D01*
X489643Y26051D01*
X489621Y26025D01*
X489619Y26023D01*
X489615Y26019D01*
X489608Y26012D01*
X489597Y26006D01*
X489584Y25995D01*
X489567Y25984D01*
X489545Y25971D01*
X489521Y25960D01*
X489493Y25947D01*
X489460Y25934D01*
X489425Y25923D01*
X489384Y25914D01*
X489340Y25905D01*
X489292Y25899D01*
X489238Y25894D01*
X489181Y25892D01*
X488795D01*
Y25280D01*
X488594D01*
Y26788D01*
X489214D01*
X489246Y26786D01*
D02*
G37*
G36*
X492477Y216224D02*
X492276D01*
Y216935D01*
X491496D01*
Y216224D01*
X491295D01*
Y217733D01*
X491496D01*
Y217114D01*
X492276D01*
Y217733D01*
X492477D01*
Y216224D01*
D02*
G37*
G36*
X493253Y217737D02*
X493282Y217733D01*
X493316Y217726D01*
X493356Y217716D01*
X493395Y217702D01*
X493434Y217685D01*
X493436D01*
X493438Y217683D01*
X493451Y217676D01*
X493471Y217663D01*
X493493Y217648D01*
X493519Y217626D01*
X493545Y217602D01*
X493571Y217574D01*
X493593Y217541D01*
X493595Y217537D01*
X493602Y217526D01*
X493611Y217506D01*
X493622Y217482D01*
X493633Y217454D01*
X493641Y217421D01*
X493648Y217384D01*
X493650Y217347D01*
Y217343D01*
Y217330D01*
X493648Y217312D01*
X493643Y217288D01*
X493637Y217260D01*
X493626Y217229D01*
X493613Y217199D01*
X493595Y217168D01*
X493593Y217164D01*
X493587Y217155D01*
X493574Y217140D01*
X493556Y217123D01*
X493534Y217103D01*
X493508Y217081D01*
X493478Y217061D01*
X493441Y217042D01*
X493443D01*
X493447Y217040D01*
X493454Y217038D01*
X493462Y217035D01*
X493486Y217027D01*
X493517Y217014D01*
X493552Y216996D01*
X493587Y216974D01*
X493619Y216946D01*
X493650Y216913D01*
X493652Y216909D01*
X493661Y216896D01*
X493674Y216874D01*
X493687Y216846D01*
X493700Y216811D01*
X493713Y216769D01*
X493722Y216722D01*
X493724Y216669D01*
Y216667D01*
Y216660D01*
Y216650D01*
X493722Y216636D01*
X493720Y216619D01*
X493715Y216599D01*
X493711Y216578D01*
X493707Y216554D01*
X493689Y216501D01*
X493676Y216473D01*
X493663Y216447D01*
X493646Y216418D01*
X493626Y216390D01*
X493604Y216362D01*
X493578Y216336D01*
X493576Y216333D01*
X493571Y216329D01*
X493563Y216322D01*
X493552Y216314D01*
X493539Y216303D01*
X493521Y216292D01*
X493502Y216279D01*
X493478Y216268D01*
X493454Y216255D01*
X493425Y216242D01*
X493397Y216231D01*
X493364Y216220D01*
X493329Y216211D01*
X493292Y216205D01*
X493255Y216200D01*
X493214Y216198D01*
X493194D01*
X493181Y216200D01*
X493164Y216203D01*
X493144Y216205D01*
X493122Y216209D01*
X493098Y216213D01*
X493046Y216227D01*
X492992Y216248D01*
X492963Y216262D01*
X492937Y216277D01*
X492911Y216296D01*
X492885Y216316D01*
X492882Y216318D01*
X492878Y216322D01*
X492872Y216329D01*
X492865Y216338D01*
X492854Y216349D01*
X492843Y216364D01*
X492830Y216379D01*
X492817Y216399D01*
X492804Y216421D01*
X492791Y216442D01*
X492767Y216495D01*
X492747Y216556D01*
X492741Y216588D01*
X492736Y216623D01*
X492922Y216647D01*
Y216645D01*
X492924Y216641D01*
X492926Y216632D01*
X492928Y216621D01*
X492931Y216608D01*
X492935Y216593D01*
X492946Y216560D01*
X492961Y216521D01*
X492981Y216484D01*
X493003Y216449D01*
X493029Y216418D01*
X493033Y216416D01*
X493042Y216407D01*
X493059Y216397D01*
X493081Y216386D01*
X493107Y216373D01*
X493140Y216362D01*
X493177Y216353D01*
X493216Y216351D01*
X493229D01*
X493238Y216353D01*
X493262Y216355D01*
X493292Y216362D01*
X493327Y216373D01*
X493364Y216388D01*
X493401Y216410D01*
X493436Y216440D01*
X493441Y216445D01*
X493451Y216458D01*
X493465Y216477D01*
X493482Y216504D01*
X493500Y216536D01*
X493513Y216573D01*
X493524Y216617D01*
X493528Y216665D01*
Y216667D01*
Y216671D01*
Y216678D01*
X493526Y216687D01*
X493524Y216711D01*
X493517Y216739D01*
X493508Y216774D01*
X493493Y216809D01*
X493471Y216844D01*
X493443Y216876D01*
X493438Y216881D01*
X493428Y216889D01*
X493410Y216902D01*
X493386Y216918D01*
X493356Y216933D01*
X493319Y216946D01*
X493277Y216955D01*
X493231Y216959D01*
X493212D01*
X493196Y216957D01*
X493177Y216955D01*
X493155Y216950D01*
X493129Y216946D01*
X493101Y216939D01*
X493122Y217103D01*
X493133D01*
X493142Y217101D01*
X493170D01*
X493194Y217105D01*
X493223Y217109D01*
X493255Y217116D01*
X493292Y217127D01*
X493327Y217142D01*
X493364Y217162D01*
X493366D01*
X493369Y217164D01*
X493380Y217173D01*
X493395Y217188D01*
X493412Y217208D01*
X493430Y217236D01*
X493445Y217269D01*
X493456Y217306D01*
X493460Y217327D01*
Y217352D01*
Y217354D01*
Y217356D01*
Y217369D01*
X493456Y217386D01*
X493451Y217410D01*
X493443Y217437D01*
X493432Y217465D01*
X493414Y217493D01*
X493391Y217519D01*
X493388Y217522D01*
X493377Y217530D01*
X493362Y217541D01*
X493342Y217554D01*
X493316Y217565D01*
X493286Y217576D01*
X493251Y217585D01*
X493212Y217587D01*
X493194D01*
X493175Y217583D01*
X493149Y217578D01*
X493120Y217569D01*
X493092Y217559D01*
X493061Y217541D01*
X493033Y217519D01*
X493031Y217517D01*
X493022Y217506D01*
X493009Y217491D01*
X492994Y217469D01*
X492978Y217441D01*
X492963Y217406D01*
X492950Y217365D01*
X492941Y217317D01*
X492756Y217349D01*
Y217352D01*
X492758Y217358D01*
X492761Y217367D01*
X492763Y217380D01*
X492767Y217395D01*
X492773Y217412D01*
X492787Y217454D01*
X492808Y217502D01*
X492835Y217550D01*
X492867Y217596D01*
X492909Y217637D01*
X492911Y217639D01*
X492915Y217641D01*
X492922Y217646D01*
X492931Y217652D01*
X492941Y217661D01*
X492957Y217670D01*
X492972Y217678D01*
X492992Y217689D01*
X493035Y217707D01*
X493085Y217724D01*
X493144Y217735D01*
X493175Y217740D01*
X493229D01*
X493253Y217737D01*
D02*
G37*
G36*
X491082Y217554D02*
X490585D01*
Y216224D01*
X490384D01*
Y217554D01*
X489887D01*
Y217733D01*
X491082D01*
Y217554D01*
D02*
G37*
G36*
X489246Y217731D02*
X489283Y217729D01*
X489323Y217726D01*
X489360Y217722D01*
X489392Y217718D01*
X489397D01*
X489412Y217713D01*
X489432Y217709D01*
X489458Y217702D01*
X489486Y217692D01*
X489517Y217678D01*
X489549Y217663D01*
X489578Y217646D01*
X489582Y217644D01*
X489591Y217637D01*
X489604Y217624D01*
X489621Y217609D01*
X489641Y217589D01*
X489661Y217563D01*
X489682Y217535D01*
X489700Y217502D01*
X489702Y217497D01*
X489706Y217487D01*
X489715Y217467D01*
X489724Y217441D01*
X489730Y217410D01*
X489739Y217375D01*
X489743Y217336D01*
X489746Y217295D01*
Y217293D01*
Y217286D01*
Y217277D01*
X489743Y217262D01*
X489741Y217247D01*
X489739Y217227D01*
X489735Y217205D01*
X489730Y217181D01*
X489715Y217131D01*
X489706Y217105D01*
X489693Y217077D01*
X489678Y217049D01*
X489663Y217022D01*
X489643Y216996D01*
X489621Y216970D01*
X489619Y216968D01*
X489615Y216963D01*
X489608Y216957D01*
X489597Y216950D01*
X489584Y216939D01*
X489567Y216929D01*
X489545Y216915D01*
X489521Y216905D01*
X489493Y216892D01*
X489460Y216878D01*
X489425Y216867D01*
X489384Y216859D01*
X489340Y216850D01*
X489292Y216844D01*
X489238Y216839D01*
X489181Y216837D01*
X488795D01*
Y216224D01*
X488594D01*
Y217733D01*
X489214D01*
X489246Y217731D01*
D02*
G37*
G36*
X12162Y25280D02*
X11962D01*
Y25990D01*
X11181D01*
Y25280D01*
X10981D01*
Y26788D01*
X11181D01*
Y26169D01*
X11962D01*
Y26788D01*
X12162D01*
Y25280D01*
D02*
G37*
G36*
X12956Y26792D02*
X12973Y26790D01*
X12995Y26788D01*
X13019Y26784D01*
X13043Y26779D01*
X13100Y26764D01*
X13156Y26742D01*
X13184Y26729D01*
X13213Y26714D01*
X13239Y26694D01*
X13263Y26673D01*
X13265Y26670D01*
X13270Y26668D01*
X13274Y26660D01*
X13283Y26651D01*
X13294Y26640D01*
X13304Y26625D01*
X13315Y26609D01*
X13328Y26590D01*
X13350Y26548D01*
X13372Y26496D01*
X13381Y26470D01*
X13385Y26439D01*
X13389Y26409D01*
X13392Y26376D01*
Y26372D01*
Y26361D01*
X13389Y26343D01*
X13387Y26319D01*
X13383Y26293D01*
X13374Y26263D01*
X13365Y26230D01*
X13352Y26197D01*
X13350Y26193D01*
X13346Y26182D01*
X13337Y26165D01*
X13324Y26141D01*
X13307Y26114D01*
X13285Y26082D01*
X13259Y26049D01*
X13228Y26012D01*
X13224Y26008D01*
X13213Y25995D01*
X13202Y25984D01*
X13191Y25973D01*
X13178Y25960D01*
X13161Y25942D01*
X13143Y25925D01*
X13121Y25905D01*
X13100Y25883D01*
X13073Y25859D01*
X13045Y25835D01*
X13014Y25807D01*
X12980Y25779D01*
X12945Y25748D01*
X12943Y25746D01*
X12938Y25742D01*
X12930Y25735D01*
X12919Y25726D01*
X12905Y25713D01*
X12890Y25700D01*
X12855Y25672D01*
X12818Y25639D01*
X12783Y25607D01*
X12753Y25578D01*
X12740Y25567D01*
X12729Y25556D01*
X12727Y25554D01*
X12720Y25548D01*
X12711Y25539D01*
X12701Y25526D01*
X12690Y25511D01*
X12677Y25495D01*
X12650Y25458D01*
X13394D01*
Y25280D01*
X12393D01*
Y25282D01*
Y25290D01*
Y25304D01*
X12395Y25321D01*
X12398Y25341D01*
X12402Y25362D01*
X12406Y25384D01*
X12415Y25408D01*
Y25410D01*
X12417Y25412D01*
X12421Y25426D01*
X12430Y25445D01*
X12443Y25471D01*
X12461Y25502D01*
X12483Y25537D01*
X12507Y25572D01*
X12537Y25609D01*
Y25611D01*
X12541Y25613D01*
X12552Y25626D01*
X12572Y25646D01*
X12600Y25674D01*
X12633Y25707D01*
X12674Y25746D01*
X12725Y25790D01*
X12779Y25835D01*
X12781Y25838D01*
X12790Y25844D01*
X12803Y25855D01*
X12818Y25868D01*
X12838Y25886D01*
X12862Y25905D01*
X12886Y25927D01*
X12914Y25951D01*
X12969Y26003D01*
X13023Y26056D01*
X13049Y26082D01*
X13073Y26108D01*
X13095Y26132D01*
X13113Y26156D01*
Y26158D01*
X13117Y26160D01*
X13121Y26167D01*
X13126Y26175D01*
X13141Y26199D01*
X13158Y26228D01*
X13174Y26263D01*
X13189Y26300D01*
X13198Y26341D01*
X13202Y26380D01*
Y26383D01*
Y26385D01*
X13200Y26398D01*
X13198Y26420D01*
X13191Y26444D01*
X13182Y26474D01*
X13167Y26505D01*
X13148Y26535D01*
X13121Y26566D01*
X13117Y26570D01*
X13106Y26579D01*
X13091Y26590D01*
X13067Y26605D01*
X13036Y26618D01*
X13001Y26631D01*
X12960Y26640D01*
X12914Y26642D01*
X12901D01*
X12892Y26640D01*
X12866Y26638D01*
X12836Y26631D01*
X12803Y26622D01*
X12766Y26607D01*
X12731Y26588D01*
X12698Y26561D01*
X12694Y26557D01*
X12685Y26546D01*
X12672Y26529D01*
X12659Y26502D01*
X12644Y26472D01*
X12631Y26433D01*
X12622Y26389D01*
X12618Y26339D01*
X12428Y26359D01*
Y26361D01*
X12430Y26367D01*
Y26378D01*
X12432Y26393D01*
X12437Y26411D01*
X12441Y26431D01*
X12448Y26455D01*
X12454Y26478D01*
X12472Y26531D01*
X12498Y26583D01*
X12513Y26609D01*
X12533Y26636D01*
X12552Y26660D01*
X12574Y26681D01*
X12576Y26683D01*
X12581Y26686D01*
X12587Y26692D01*
X12598Y26699D01*
X12611Y26707D01*
X12626Y26716D01*
X12644Y26727D01*
X12666Y26738D01*
X12690Y26749D01*
X12716Y26760D01*
X12744Y26768D01*
X12775Y26777D01*
X12807Y26784D01*
X12842Y26790D01*
X12879Y26792D01*
X12919Y26795D01*
X12940D01*
X12956Y26792D01*
D02*
G37*
G36*
X10767Y26609D02*
X10270D01*
Y25280D01*
X10069D01*
Y26609D01*
X9572D01*
Y26788D01*
X10767D01*
Y26609D01*
D02*
G37*
G36*
X8931Y26786D02*
X8968Y26784D01*
X9008Y26781D01*
X9045Y26777D01*
X9077Y26773D01*
X9082D01*
X9097Y26768D01*
X9117Y26764D01*
X9143Y26758D01*
X9171Y26747D01*
X9202Y26734D01*
X9234Y26718D01*
X9263Y26701D01*
X9267Y26699D01*
X9276Y26692D01*
X9289Y26679D01*
X9306Y26664D01*
X9326Y26644D01*
X9346Y26618D01*
X9367Y26590D01*
X9385Y26557D01*
X9387Y26553D01*
X9391Y26542D01*
X9400Y26522D01*
X9409Y26496D01*
X9415Y26465D01*
X9424Y26431D01*
X9428Y26391D01*
X9431Y26350D01*
Y26348D01*
Y26341D01*
Y26333D01*
X9428Y26317D01*
X9426Y26302D01*
X9424Y26282D01*
X9420Y26261D01*
X9415Y26237D01*
X9400Y26186D01*
X9391Y26160D01*
X9378Y26132D01*
X9363Y26104D01*
X9348Y26077D01*
X9328Y26051D01*
X9306Y26025D01*
X9304Y26023D01*
X9300Y26019D01*
X9293Y26012D01*
X9282Y26006D01*
X9269Y25995D01*
X9252Y25984D01*
X9230Y25971D01*
X9206Y25960D01*
X9178Y25947D01*
X9145Y25934D01*
X9110Y25923D01*
X9069Y25914D01*
X9025Y25905D01*
X8977Y25899D01*
X8923Y25894D01*
X8866Y25892D01*
X8480D01*
Y25280D01*
X8280D01*
Y26788D01*
X8899D01*
X8931Y26786D01*
D02*
G37*
G36*
X12162Y216224D02*
X11962D01*
Y216935D01*
X11181D01*
Y216224D01*
X10981D01*
Y217733D01*
X11181D01*
Y217114D01*
X11962D01*
Y217733D01*
X12162D01*
Y216224D01*
D02*
G37*
G36*
X13117D02*
X12932D01*
Y217404D01*
X12930Y217402D01*
X12919Y217393D01*
X12905Y217380D01*
X12884Y217365D01*
X12860Y217345D01*
X12829Y217323D01*
X12794Y217299D01*
X12755Y217275D01*
X12753D01*
X12751Y217273D01*
X12738Y217264D01*
X12716Y217253D01*
X12690Y217240D01*
X12659Y217225D01*
X12626Y217210D01*
X12594Y217195D01*
X12561Y217181D01*
Y217360D01*
X12563D01*
X12568Y217365D01*
X12576Y217367D01*
X12587Y217373D01*
X12600Y217380D01*
X12616Y217389D01*
X12653Y217410D01*
X12696Y217434D01*
X12740Y217465D01*
X12786Y217500D01*
X12831Y217537D01*
X12833Y217539D01*
X12836Y217541D01*
X12842Y217548D01*
X12851Y217554D01*
X12871Y217576D01*
X12897Y217602D01*
X12923Y217633D01*
X12951Y217668D01*
X12975Y217702D01*
X12997Y217740D01*
X13117D01*
Y216224D01*
D02*
G37*
G36*
X10767Y217554D02*
X10270D01*
Y216224D01*
X10069D01*
Y217554D01*
X9572D01*
Y217733D01*
X10767D01*
Y217554D01*
D02*
G37*
G36*
X8931Y217731D02*
X8968Y217729D01*
X9008Y217726D01*
X9045Y217722D01*
X9077Y217718D01*
X9082D01*
X9097Y217713D01*
X9117Y217709D01*
X9143Y217702D01*
X9171Y217692D01*
X9202Y217678D01*
X9234Y217663D01*
X9263Y217646D01*
X9267Y217644D01*
X9276Y217637D01*
X9289Y217624D01*
X9306Y217609D01*
X9326Y217589D01*
X9346Y217563D01*
X9367Y217535D01*
X9385Y217502D01*
X9387Y217497D01*
X9391Y217487D01*
X9400Y217467D01*
X9409Y217441D01*
X9415Y217410D01*
X9424Y217375D01*
X9428Y217336D01*
X9431Y217295D01*
Y217293D01*
Y217286D01*
Y217277D01*
X9428Y217262D01*
X9426Y217247D01*
X9424Y217227D01*
X9420Y217205D01*
X9415Y217181D01*
X9400Y217131D01*
X9391Y217105D01*
X9378Y217077D01*
X9363Y217049D01*
X9348Y217022D01*
X9328Y216996D01*
X9306Y216970D01*
X9304Y216968D01*
X9300Y216963D01*
X9293Y216957D01*
X9282Y216950D01*
X9269Y216939D01*
X9252Y216929D01*
X9230Y216915D01*
X9206Y216905D01*
X9178Y216892D01*
X9145Y216878D01*
X9110Y216867D01*
X9069Y216859D01*
X9025Y216850D01*
X8977Y216844D01*
X8923Y216839D01*
X8866Y216837D01*
X8480D01*
Y216224D01*
X8280D01*
Y217733D01*
X8899D01*
X8931Y217731D01*
D02*
G37*
%LPC*%
G36*
X493327Y26487D02*
X492852Y25811D01*
X493327D01*
Y26487D01*
D02*
G37*
G36*
X489227Y26609D02*
X488795D01*
Y26071D01*
X489200D01*
X489216Y26073D01*
X489231D01*
X489249Y26075D01*
X489290Y26080D01*
X489336Y26088D01*
X489382Y26101D01*
X489423Y26119D01*
X489442Y26130D01*
X489458Y26143D01*
X489462Y26147D01*
X489471Y26156D01*
X489484Y26173D01*
X489499Y26195D01*
X489514Y26223D01*
X489528Y26258D01*
X489536Y26298D01*
X489541Y26343D01*
Y26346D01*
Y26348D01*
Y26359D01*
X489538Y26378D01*
X489534Y26400D01*
X489530Y26424D01*
X489521Y26452D01*
X489508Y26478D01*
X489493Y26505D01*
X489491Y26507D01*
X489484Y26516D01*
X489473Y26526D01*
X489460Y26542D01*
X489440Y26557D01*
X489419Y26570D01*
X489395Y26583D01*
X489366Y26594D01*
X489364D01*
X489355Y26596D01*
X489342Y26598D01*
X489325Y26603D01*
X489299Y26605D01*
X489266Y26607D01*
X489227Y26609D01*
D02*
G37*
G36*
Y217554D02*
X488795D01*
Y217016D01*
X489200D01*
X489216Y217018D01*
X489231D01*
X489249Y217020D01*
X489290Y217024D01*
X489336Y217033D01*
X489382Y217046D01*
X489423Y217064D01*
X489442Y217075D01*
X489458Y217088D01*
X489462Y217092D01*
X489471Y217101D01*
X489484Y217118D01*
X489499Y217140D01*
X489514Y217168D01*
X489528Y217203D01*
X489536Y217243D01*
X489541Y217288D01*
Y217290D01*
Y217293D01*
Y217303D01*
X489538Y217323D01*
X489534Y217345D01*
X489530Y217369D01*
X489521Y217397D01*
X489508Y217423D01*
X489493Y217450D01*
X489491Y217452D01*
X489484Y217460D01*
X489473Y217471D01*
X489460Y217487D01*
X489440Y217502D01*
X489419Y217515D01*
X489395Y217528D01*
X489366Y217539D01*
X489364D01*
X489355Y217541D01*
X489342Y217543D01*
X489325Y217548D01*
X489299Y217550D01*
X489266Y217552D01*
X489227Y217554D01*
D02*
G37*
G36*
X8912Y26609D02*
X8480D01*
Y26071D01*
X8886D01*
X8901Y26073D01*
X8916D01*
X8934Y26075D01*
X8975Y26080D01*
X9021Y26088D01*
X9066Y26101D01*
X9108Y26119D01*
X9127Y26130D01*
X9143Y26143D01*
X9147Y26147D01*
X9156Y26156D01*
X9169Y26173D01*
X9184Y26195D01*
X9200Y26223D01*
X9213Y26258D01*
X9221Y26298D01*
X9226Y26343D01*
Y26346D01*
Y26348D01*
Y26359D01*
X9223Y26378D01*
X9219Y26400D01*
X9215Y26424D01*
X9206Y26452D01*
X9193Y26478D01*
X9178Y26505D01*
X9176Y26507D01*
X9169Y26516D01*
X9158Y26526D01*
X9145Y26542D01*
X9125Y26557D01*
X9104Y26570D01*
X9080Y26583D01*
X9051Y26594D01*
X9049D01*
X9040Y26596D01*
X9027Y26598D01*
X9010Y26603D01*
X8984Y26605D01*
X8951Y26607D01*
X8912Y26609D01*
D02*
G37*
G36*
Y217554D02*
X8480D01*
Y217016D01*
X8886D01*
X8901Y217018D01*
X8916D01*
X8934Y217020D01*
X8975Y217024D01*
X9021Y217033D01*
X9066Y217046D01*
X9108Y217064D01*
X9127Y217075D01*
X9143Y217088D01*
X9147Y217092D01*
X9156Y217101D01*
X9169Y217118D01*
X9184Y217140D01*
X9200Y217168D01*
X9213Y217203D01*
X9221Y217243D01*
X9226Y217288D01*
Y217290D01*
Y217293D01*
Y217303D01*
X9223Y217323D01*
X9219Y217345D01*
X9215Y217369D01*
X9206Y217397D01*
X9193Y217423D01*
X9178Y217450D01*
X9176Y217452D01*
X9169Y217460D01*
X9158Y217471D01*
X9145Y217487D01*
X9125Y217502D01*
X9104Y217515D01*
X9080Y217528D01*
X9051Y217539D01*
X9049D01*
X9040Y217541D01*
X9027Y217543D01*
X9010Y217548D01*
X8984Y217550D01*
X8951Y217552D01*
X8912Y217554D01*
D02*
G37*
%LPD*%
D14*
X283464Y47243D02*
X284448Y48227D01*
Y50195D01*
X283464Y51179D01*
X282480D01*
X281496Y50195D01*
Y48227D01*
X280512Y47243D01*
X279528D01*
X278544Y48227D01*
Y50195D01*
X279528Y51179D01*
X284448Y45275D02*
X278544D01*
X280512Y43307D01*
X278544Y41339D01*
X284448D01*
Y35436D02*
Y39371D01*
X281496D01*
X282480Y37404D01*
Y36419D01*
X281496Y35436D01*
X279528D01*
X278544Y36419D01*
Y38387D01*
X279528Y39371D01*
X448818Y47243D02*
X449802Y48227D01*
Y50195D01*
X448818Y51179D01*
X447834D01*
X446850Y50195D01*
Y48227D01*
X445866Y47243D01*
X444882D01*
X443899Y48227D01*
Y50195D01*
X444882Y51179D01*
X449802Y45275D02*
X443899D01*
X445866Y43307D01*
X443899Y41339D01*
X449802D01*
X448818Y39371D02*
X449802Y38387D01*
Y36419D01*
X448818Y35436D01*
X447834D01*
X446850Y36419D01*
X445866Y35436D01*
X444882D01*
X443899Y36419D01*
Y38387D01*
X444882Y39371D01*
X445866D01*
X446850Y38387D01*
X447834Y39371D01*
X448818D01*
X446850Y38387D02*
Y36419D01*
X338582Y47243D02*
X339566Y48227D01*
Y50195D01*
X338582Y51179D01*
X337598D01*
X336614Y50195D01*
Y48227D01*
X335630Y47243D01*
X334646D01*
X333662Y48227D01*
Y50195D01*
X334646Y51179D01*
X339566Y45275D02*
X333662D01*
X335630Y43307D01*
X333662Y41339D01*
X339566D01*
Y35436D02*
X338582Y37404D01*
X336614Y39371D01*
X334646D01*
X333662Y38387D01*
Y36419D01*
X334646Y35436D01*
X335630D01*
X336614Y36419D01*
Y39371D01*
X393700Y47243D02*
X394684Y48227D01*
Y50195D01*
X393700Y51179D01*
X392716D01*
X391732Y50195D01*
Y48227D01*
X390748Y47243D01*
X389764D01*
X388780Y48227D01*
Y50195D01*
X389764Y51179D01*
X394684Y45275D02*
X388780D01*
X390748Y43307D01*
X388780Y41339D01*
X394684D01*
Y39371D02*
Y35436D01*
X393700D01*
X389764Y39371D01*
X388780D01*
X118110Y47243D02*
X119094Y48227D01*
Y50195D01*
X118110Y51179D01*
X117126D01*
X116142Y50195D01*
Y48227D01*
X115158Y47243D01*
X114174D01*
X113190Y48227D01*
Y50195D01*
X114174Y51179D01*
X119094Y45275D02*
X113190D01*
X115158Y43307D01*
X113190Y41339D01*
X119094D01*
X113190Y35436D02*
Y39371D01*
X117126Y35436D01*
X118110D01*
X119094Y36419D01*
Y38387D01*
X118110Y39371D01*
X173228Y47243D02*
X174212Y48227D01*
Y50195D01*
X173228Y51179D01*
X172244D01*
X171260Y50195D01*
Y48227D01*
X170276Y47243D01*
X169292D01*
X168308Y48227D01*
Y50195D01*
X169292Y51179D01*
X174212Y45275D02*
X168308D01*
X170276Y43307D01*
X168308Y41339D01*
X174212D01*
X173228Y39371D02*
X174212Y38387D01*
Y36419D01*
X173228Y35436D01*
X172244D01*
X171260Y36419D01*
Y37404D01*
Y36419D01*
X170276Y35436D01*
X169292D01*
X168308Y36419D01*
Y38387D01*
X169292Y39371D01*
X228346Y47243D02*
X229330Y48227D01*
Y50195D01*
X228346Y51179D01*
X227362D01*
X226378Y50195D01*
Y48227D01*
X225394Y47243D01*
X224410D01*
X223426Y48227D01*
Y50195D01*
X224410Y51179D01*
X229330Y45275D02*
X223426D01*
X225394Y43307D01*
X223426Y41339D01*
X229330D01*
X223426Y36419D02*
X229330D01*
X226378Y39371D01*
Y35436D01*
X62991Y46259D02*
X63975Y47243D01*
Y49211D01*
X62991Y50195D01*
X62008D01*
X61024Y49211D01*
Y47243D01*
X60040Y46259D01*
X59056D01*
X58072Y47243D01*
Y49211D01*
X59056Y50195D01*
X63975Y44291D02*
X58072D01*
X60040Y42323D01*
X58072Y40355D01*
X63975D01*
X58072Y38387D02*
Y36419D01*
Y37404D01*
X63975D01*
X62991Y38387D01*
D57*
X141733Y186603D02*
X145669D01*
Y189227D01*
X141733Y193163D02*
Y190539D01*
X145669D01*
Y193163D01*
X143701Y190539D02*
Y191851D01*
X141733Y194475D02*
X145669D01*
Y196443D01*
X145013Y197099D01*
X142389D01*
X141733Y196443D01*
Y194475D01*
X145669Y201034D02*
Y198411D01*
X143045Y201034D01*
X142389D01*
X141733Y200378D01*
Y199067D01*
X142389Y198411D01*
X31752Y196854D02*
Y192918D01*
X34376D01*
X38312Y196854D02*
X35688D01*
Y192918D01*
X38312D01*
X35688Y194886D02*
X37000D01*
X39624Y196854D02*
Y192918D01*
X41592D01*
X42248Y193574D01*
Y196198D01*
X41592Y196854D01*
X39624D01*
X43560Y192918D02*
X44872D01*
X44216D01*
Y196854D01*
X43560Y196198D01*
M02*
