G04*
G04 #@! TF.GenerationSoftware,Altium Limited,Altium Designer,24.5.1 (21)*
G04*
G04 Layer_Physical_Order=1*
G04 Layer_Color=255*
%FSLAX25Y25*%
%MOIN*%
G70*
G04*
G04 #@! TF.SameCoordinates,3106325B-D942-48A4-ABE3-467AB4579E9E*
G04*
G04*
G04 #@! TF.FilePolarity,Positive*
G04*
G01*
G75*
%ADD24R,0.05200X0.05200*%
%ADD25C,0.05200*%
%ADD26R,0.04724X0.04724*%
%ADD27C,0.04724*%
%ADD38C,0.01968*%
%ADD39R,0.06496X0.06496*%
%ADD40C,0.06496*%
%ADD41C,0.05315*%
%ADD42R,0.05315X0.05315*%
%ADD43C,0.07795*%
%ADD44R,0.07795X0.07795*%
%ADD45R,0.05315X0.05315*%
%ADD46R,0.05512X0.05512*%
%ADD47C,0.05512*%
%ADD48C,0.10000*%
%ADD49C,0.05906*%
%ADD50C,0.06181*%
%ADD51R,0.06496X0.06496*%
%ADD52C,0.07087*%
%ADD53C,0.19685*%
%ADD54R,0.05906X0.05906*%
D24*
X342520Y172913D02*
D03*
Y157480D02*
D03*
D25*
Y192913D02*
D03*
Y137480D02*
D03*
D26*
X390996Y157480D02*
D03*
X360972Y173228D02*
D03*
D27*
X360972Y157480D02*
D03*
X390996Y173228D02*
D03*
D38*
X49213Y127067D02*
X77854D01*
X38287D02*
X49213D01*
X54035Y131890D01*
X62992D01*
X27559Y179134D02*
Y209477D01*
X28712Y210630D02*
X174766D01*
X27559Y209477D02*
X28712Y210630D01*
X169291Y205155D02*
X174766Y210630D01*
X192913Y120079D02*
X198819Y114173D01*
X183071Y129921D02*
X192913Y120079D01*
X211445Y125984D02*
X214882Y129421D01*
X198819Y125984D02*
X211445D01*
X214882Y129421D02*
Y135827D01*
X192913Y120079D02*
X198819Y125984D01*
X178071Y156260D02*
X183071Y151260D01*
X179134Y129106D02*
Y141732D01*
X183071Y129921D02*
Y151260D01*
X177981Y127953D02*
X179134Y129106D01*
X149606Y127953D02*
X177981D01*
X145669Y124016D02*
X149606Y127953D01*
X240158Y188976D02*
X240678Y189497D01*
X244615D01*
X253937Y198819D01*
X267717D01*
X198003Y204882D02*
X301024D01*
X188071Y186260D02*
X193414Y191603D01*
Y200292D01*
X198003Y204882D01*
X301024D02*
X307087Y198819D01*
X168824Y187013D02*
Y188914D01*
X169291Y189382D02*
Y205155D01*
X168071Y186260D02*
X168824Y187013D01*
Y188914D02*
X169291Y189382D01*
X174766Y210630D02*
X337598D01*
X351378Y196850D01*
X169359Y151507D02*
X174369Y146498D01*
X174442D01*
X175710Y145156D02*
Y145229D01*
X174442Y146498D02*
X175710Y145229D01*
X168071Y156260D02*
X169359Y154972D01*
Y151507D02*
Y154972D01*
X175710Y145156D02*
X179134Y141732D01*
X122047Y126907D02*
Y131890D01*
X98425Y125984D02*
X121125D01*
X122047Y126907D01*
X92520Y131890D02*
X98425Y125984D01*
X92520Y131890D02*
Y194882D01*
X84646Y194882D02*
X92520D01*
X92520Y194882D01*
X51181Y202756D02*
X76772D01*
X84646Y194882D01*
X43307D02*
X51181Y202756D01*
X351378Y196850D02*
X364173D01*
X250922Y136873D02*
X259842Y127953D01*
X198819Y167323D02*
X250000D01*
X198819Y157008D02*
Y167323D01*
X250000D02*
X250922Y166400D01*
Y136873D02*
Y166400D01*
X198819Y167323D02*
Y173228D01*
X259842Y127953D02*
X362205D01*
X162340Y179134D02*
X192913D01*
X161417Y180056D02*
Y190945D01*
Y180056D02*
X162340Y179134D01*
X153543Y198819D02*
X161417Y190945D01*
X192913Y179134D02*
X198819Y173228D01*
X198071Y156260D02*
X198819Y157008D01*
X143701Y198819D02*
X153543D01*
X21654Y173228D02*
X27559Y179134D01*
X21654Y143701D02*
Y173228D01*
Y143701D02*
X38287Y127067D01*
X77854D02*
X82677Y131890D01*
X122047Y167323D02*
Y178211D01*
X122970Y179134D01*
X134016D01*
X143701Y188819D01*
X135827Y198819D02*
X143701D01*
X112205Y135827D02*
Y175197D01*
X135827Y198819D01*
X108268Y131890D02*
X112205Y135827D01*
X102362Y131890D02*
X108268D01*
X121874Y194709D02*
X122047Y194882D01*
X121874Y190772D02*
Y194709D01*
X108268Y177165D02*
X121874Y190772D01*
X108268Y168245D02*
Y177165D01*
X107345Y167323D02*
X108268Y168245D01*
X102362Y167323D02*
X107345D01*
X61024Y183993D02*
Y194882D01*
X61946Y183071D02*
X76772D01*
X61024Y183993D02*
X61946Y183071D01*
X76772D02*
X82677Y177165D01*
Y167323D02*
Y177165D01*
X33307Y179291D02*
Y194882D01*
Y179291D02*
X45276Y167323D01*
X62992D01*
X145669Y100394D02*
Y124016D01*
X137795Y92520D02*
X145669Y100394D01*
X63915Y92520D02*
X137795D01*
X62992Y47244D02*
Y91597D01*
X63915Y92520D01*
X62992Y47244D02*
X66929Y43307D01*
X95472D01*
X102362Y53150D02*
X139764D01*
X70866Y84646D02*
X102362Y53150D01*
X139764D02*
Y70866D01*
X214567Y147638D02*
X220472Y153543D01*
X196693Y147638D02*
X214567D01*
X188071Y156260D02*
X196693Y147638D01*
X214567Y183071D02*
X220472Y188976D01*
X201260Y183071D02*
X214567D01*
X198603Y185727D02*
X201260Y183071D01*
X198071Y186260D02*
X199136D01*
X220472Y153543D02*
X240158D01*
X178071Y186260D02*
X188071D01*
X198819Y53150D02*
X250000D01*
X194882D02*
X198819D01*
Y114173D01*
X342520Y165197D02*
Y172913D01*
Y157480D02*
Y165197D01*
X287402Y175197D02*
Y198819D01*
Y175197D02*
X297402Y165197D01*
X342520D01*
X375984Y145669D02*
X381890Y139764D01*
Y133858D02*
X382812Y132936D01*
X402621D02*
X415354Y145669D01*
X381890Y133858D02*
Y139764D01*
X382812Y132936D02*
X402621D01*
X346457Y145669D02*
X375984D01*
X343138Y142351D02*
X346457Y145669D01*
X343138Y138099D02*
Y142351D01*
X342520Y137480D02*
X343138Y138099D01*
X352362Y183071D02*
X393701D01*
X342520Y192913D02*
X352362Y183071D01*
X393701D02*
Y190945D01*
Y176679D02*
Y183071D01*
X401575Y175197D01*
X358268Y131890D02*
Y139764D01*
X362205Y127953D02*
X413386D01*
X358268Y131890D02*
X362205Y127953D01*
X415354Y129921D02*
Y135433D01*
X413386Y127953D02*
X415354Y129921D01*
X390996Y143374D02*
X393701Y140669D01*
Y139764D02*
Y140669D01*
X390996Y143374D02*
Y157480D01*
X360972Y157480D02*
Y173228D01*
Y157480D02*
X360972Y157480D01*
X358268Y190945D02*
X364173Y196850D01*
X405512D01*
X411417Y190945D01*
Y185433D02*
Y190945D01*
X401575Y175197D02*
X411417D01*
X390996Y173228D02*
Y173974D01*
X393701Y176679D01*
X411417Y164961D02*
X412095Y164283D01*
Y159606D02*
Y164283D01*
Y159606D02*
X415354Y156347D01*
Y155905D02*
Y156347D01*
X411417Y164961D02*
X447405D01*
X454724Y172280D01*
X305118Y53150D02*
X360236D01*
X458661D02*
X470472Y64961D01*
Y70866D01*
X415354Y53150D02*
X458661D01*
X456693Y84646D02*
X470472Y70866D01*
X360236Y53150D02*
X415354D01*
Y70866D01*
X401575Y84646D02*
X415354Y70866D01*
X360236Y53150D02*
Y70866D01*
X346457Y84646D02*
X360236Y70866D01*
X250000Y53150D02*
X305118D01*
Y70866D01*
X291339Y84646D02*
X305118Y70866D01*
X250000Y53150D02*
Y70866D01*
X236221Y84646D02*
X250000Y70866D01*
X139764Y53150D02*
X194882D01*
Y70866D01*
X181102Y84646D02*
X194882Y70866D01*
X125984Y84646D02*
X139764Y70866D01*
X446850Y43307D02*
X456693Y33465D01*
X437008Y120079D02*
X456693D01*
X381890D02*
X381890Y120079D01*
X401575D01*
X326772Y120079D02*
X346457D01*
X271654D02*
X291339D01*
X216535D02*
X236221D01*
X161417D02*
X181102D01*
X106299D02*
X125984D01*
X51181D02*
X70866D01*
X415354Y43307D02*
X446850D01*
X456693Y18701D02*
Y33465D01*
X360236Y43307D02*
X415354D01*
X401575Y29528D02*
X415354Y43307D01*
X401575Y18701D02*
Y29528D01*
X305118Y43307D02*
X360236D01*
X346457Y29528D02*
X360236Y43307D01*
X346457Y18701D02*
Y29528D01*
X181102D02*
X194882Y43307D01*
X181102Y18701D02*
Y29528D01*
X194882Y43307D02*
X250000D01*
X139764D02*
X194882D01*
X125984Y29528D02*
X139764Y43307D01*
X125984Y18701D02*
Y29528D01*
X95472Y43307D02*
X139764D01*
X250000D02*
X305118D01*
X291339Y29528D02*
X305118Y43307D01*
X291339Y18701D02*
Y29528D01*
X236221Y18701D02*
Y29528D01*
X250000Y43307D01*
X70866Y18701D02*
X95472Y43307D01*
X437008Y67913D02*
Y84646D01*
X381890Y67913D02*
Y84646D01*
X326772Y67913D02*
Y84646D01*
X271654Y67913D02*
Y84646D01*
X216535Y67913D02*
Y84646D01*
X161417Y67913D02*
Y84646D01*
X106299Y67913D02*
Y84646D01*
X51181Y67913D02*
Y84646D01*
D39*
X194882Y135827D02*
D03*
D40*
X204882D02*
D03*
X214882D02*
D03*
X102362Y167323D02*
D03*
X82677Y131890D02*
D03*
D41*
X216535Y84646D02*
D03*
X240158Y153543D02*
D03*
X220472Y188976D02*
D03*
X393701Y139764D02*
D03*
X358268Y190945D02*
D03*
X62992Y167323D02*
D03*
X122047D02*
D03*
X456693Y120079D02*
D03*
X437008Y84646D02*
D03*
X401575Y120079D02*
D03*
X381890Y84646D02*
D03*
X346457Y120079D02*
D03*
X326772Y84646D02*
D03*
X291339Y120079D02*
D03*
X271654Y84646D02*
D03*
X236221Y120079D02*
D03*
X181102D02*
D03*
X161417Y84646D02*
D03*
X125984Y120079D02*
D03*
X106299Y84646D02*
D03*
X70866Y120079D02*
D03*
X51181Y84646D02*
D03*
D42*
X216535Y120079D02*
D03*
X240158Y188976D02*
D03*
X220472Y153543D02*
D03*
X62992Y131890D02*
D03*
X122047D02*
D03*
X456693Y84646D02*
D03*
X437008Y120079D02*
D03*
X401575Y84646D02*
D03*
X381890Y120079D02*
D03*
X346457Y84646D02*
D03*
X326772Y120079D02*
D03*
X291339Y84646D02*
D03*
X271654Y120079D02*
D03*
X236221Y84646D02*
D03*
X181102D02*
D03*
X161417Y120079D02*
D03*
X125984Y84646D02*
D03*
X106299Y120079D02*
D03*
X70866Y84646D02*
D03*
X51181Y120079D02*
D03*
D43*
X267717Y198819D02*
D03*
X287402D02*
D03*
D44*
X307087D02*
D03*
D45*
X358268Y139764D02*
D03*
X393701Y190945D02*
D03*
D46*
X411417Y185433D02*
D03*
X415354Y135433D02*
D03*
D47*
X411417Y164961D02*
D03*
Y175197D02*
D03*
X415354Y145669D02*
D03*
Y155905D02*
D03*
D48*
X454724Y142680D02*
D03*
Y172280D02*
D03*
D49*
X143701Y188819D02*
D03*
Y198819D02*
D03*
X33307Y194882D02*
D03*
X43307D02*
D03*
X178071Y156260D02*
D03*
X188071D02*
D03*
X198071D02*
D03*
X168071Y186260D02*
D03*
X178071D02*
D03*
X188071D02*
D03*
X198071D02*
D03*
D50*
X122047Y194882D02*
D03*
X92520D02*
D03*
X61024D02*
D03*
D51*
X102362Y131890D02*
D03*
X82677Y167323D02*
D03*
D52*
X291339Y67913D02*
D03*
Y18701D02*
D03*
X271654Y67913D02*
D03*
Y18701D02*
D03*
X456693Y67913D02*
D03*
Y18701D02*
D03*
X437008Y67913D02*
D03*
Y18701D02*
D03*
X346457Y67913D02*
D03*
Y18701D02*
D03*
X326772Y67913D02*
D03*
Y18701D02*
D03*
X401575Y67913D02*
D03*
Y18701D02*
D03*
X381890Y67913D02*
D03*
Y18701D02*
D03*
X125984Y67913D02*
D03*
Y18701D02*
D03*
X106299Y67913D02*
D03*
Y18701D02*
D03*
X181102Y67913D02*
D03*
Y18701D02*
D03*
X161417Y67913D02*
D03*
Y18701D02*
D03*
X236221Y67913D02*
D03*
Y18701D02*
D03*
X216535Y67913D02*
D03*
Y18701D02*
D03*
X51181D02*
D03*
Y67913D02*
D03*
X70866Y18701D02*
D03*
Y67913D02*
D03*
D53*
X494095Y13780D02*
D03*
Y204724D02*
D03*
X13780Y13780D02*
D03*
Y204724D02*
D03*
D54*
X168071Y156260D02*
D03*
M02*
