G04*
G04 #@! TF.GenerationSoftware,Altium Limited,Altium Designer,24.5.1 (21)*
G04*
G04 Layer_Physical_Order=2*
G04 Layer_Color=16711680*
%FSLAX25Y25*%
%MOIN*%
G70*
G04*
G04 #@! TF.SameCoordinates,3106325B-D942-48A4-ABE3-467AB4579E9E*
G04*
G04*
G04 #@! TF.FilePolarity,Positive*
G04*
G01*
G75*
%ADD24R,0.05200X0.05200*%
%ADD25C,0.05200*%
%ADD26R,0.04724X0.04724*%
%ADD27C,0.04724*%
%ADD38C,0.01968*%
%ADD39R,0.06496X0.06496*%
%ADD40C,0.06496*%
%ADD41C,0.05315*%
%ADD42R,0.05315X0.05315*%
%ADD43C,0.07795*%
%ADD44R,0.07795X0.07795*%
%ADD45R,0.05315X0.05315*%
%ADD46R,0.05512X0.05512*%
%ADD47C,0.05512*%
%ADD48C,0.10000*%
%ADD49C,0.05906*%
%ADD50C,0.06181*%
%ADD51R,0.06496X0.06496*%
%ADD52C,0.07087*%
%ADD53C,0.19685*%
%ADD54R,0.05906X0.05906*%
D24*
X342520Y172913D02*
D03*
Y157480D02*
D03*
D25*
Y192913D02*
D03*
Y137480D02*
D03*
D26*
X390996Y157480D02*
D03*
X360972Y173228D02*
D03*
D27*
X360972Y157480D02*
D03*
X390996Y173228D02*
D03*
D38*
X171260Y135827D02*
X194882D01*
X167323Y131890D02*
X171260Y135827D01*
X122047Y131890D02*
X167323D01*
X194882Y135827D02*
X204882D01*
X210630Y141575D01*
Y174044D01*
X483078Y201582D02*
X490952D01*
X468504Y156460D02*
Y187008D01*
X490952Y201582D02*
X494095Y204724D01*
X468504Y187008D02*
X483078Y201582D01*
X454724Y142680D02*
X468504Y156460D01*
X211783Y175197D02*
X226378D01*
X210630Y174044D02*
X211783Y175197D01*
X226378D02*
X240158Y188976D01*
X13780Y13780D02*
X15748Y11811D01*
X492126D01*
X494095Y13780D01*
Y204724D01*
X13780Y13780D02*
Y204724D01*
X15748Y202756D01*
X41339D01*
X43307Y194882D02*
Y200787D01*
X41339Y202756D02*
X43307Y200787D01*
X168071Y156260D02*
X198071Y186260D01*
D39*
X194882Y135827D02*
D03*
D40*
X204882D02*
D03*
X214882D02*
D03*
X102362Y167323D02*
D03*
X82677Y131890D02*
D03*
D41*
X216535Y84646D02*
D03*
X240158Y153543D02*
D03*
X220472Y188976D02*
D03*
X393701Y139764D02*
D03*
X358268Y190945D02*
D03*
X62992Y167323D02*
D03*
X122047D02*
D03*
X456693Y120079D02*
D03*
X437008Y84646D02*
D03*
X401575Y120079D02*
D03*
X381890Y84646D02*
D03*
X346457Y120079D02*
D03*
X326772Y84646D02*
D03*
X291339Y120079D02*
D03*
X271654Y84646D02*
D03*
X236221Y120079D02*
D03*
X181102D02*
D03*
X161417Y84646D02*
D03*
X125984Y120079D02*
D03*
X106299Y84646D02*
D03*
X70866Y120079D02*
D03*
X51181Y84646D02*
D03*
D42*
X216535Y120079D02*
D03*
X240158Y188976D02*
D03*
X220472Y153543D02*
D03*
X62992Y131890D02*
D03*
X122047D02*
D03*
X456693Y84646D02*
D03*
X437008Y120079D02*
D03*
X401575Y84646D02*
D03*
X381890Y120079D02*
D03*
X346457Y84646D02*
D03*
X326772Y120079D02*
D03*
X291339Y84646D02*
D03*
X271654Y120079D02*
D03*
X236221Y84646D02*
D03*
X181102D02*
D03*
X161417Y120079D02*
D03*
X125984Y84646D02*
D03*
X106299Y120079D02*
D03*
X70866Y84646D02*
D03*
X51181Y120079D02*
D03*
D43*
X267717Y198819D02*
D03*
X287402D02*
D03*
D44*
X307087D02*
D03*
D45*
X358268Y139764D02*
D03*
X393701Y190945D02*
D03*
D46*
X411417Y185433D02*
D03*
X415354Y135433D02*
D03*
D47*
X411417Y164961D02*
D03*
Y175197D02*
D03*
X415354Y145669D02*
D03*
Y155905D02*
D03*
D48*
X454724Y142680D02*
D03*
Y172280D02*
D03*
D49*
X143701Y188819D02*
D03*
Y198819D02*
D03*
X33307Y194882D02*
D03*
X43307D02*
D03*
X178071Y156260D02*
D03*
X188071D02*
D03*
X198071D02*
D03*
X168071Y186260D02*
D03*
X178071D02*
D03*
X188071D02*
D03*
X198071D02*
D03*
D50*
X122047Y194882D02*
D03*
X92520D02*
D03*
X61024D02*
D03*
D51*
X102362Y131890D02*
D03*
X82677Y167323D02*
D03*
D52*
X291339Y67913D02*
D03*
Y18701D02*
D03*
X271654Y67913D02*
D03*
Y18701D02*
D03*
X456693Y67913D02*
D03*
Y18701D02*
D03*
X437008Y67913D02*
D03*
Y18701D02*
D03*
X346457Y67913D02*
D03*
Y18701D02*
D03*
X326772Y67913D02*
D03*
Y18701D02*
D03*
X401575Y67913D02*
D03*
Y18701D02*
D03*
X381890Y67913D02*
D03*
Y18701D02*
D03*
X125984Y67913D02*
D03*
Y18701D02*
D03*
X106299Y67913D02*
D03*
Y18701D02*
D03*
X181102Y67913D02*
D03*
Y18701D02*
D03*
X161417Y67913D02*
D03*
Y18701D02*
D03*
X236221Y67913D02*
D03*
Y18701D02*
D03*
X216535Y67913D02*
D03*
Y18701D02*
D03*
X51181D02*
D03*
Y67913D02*
D03*
X70866Y18701D02*
D03*
Y67913D02*
D03*
D53*
X494095Y13780D02*
D03*
Y204724D02*
D03*
X13780Y13780D02*
D03*
Y204724D02*
D03*
D54*
X168071Y156260D02*
D03*
M02*
